<?xml version="1.0" standalone="no"?>
<!DOCTYPE svg PUBLIC "-//W3C//DTD SVG 20010904//EN"
 "http://www.w3.org/TR/2001/REC-SVG-20010904/DTD/svg10.dtd">
<svg version="1.0" xmlns="http://www.w3.org/2000/svg"
 width="2600.000000pt" height="2600.000000pt" viewBox="0 0 2600.000000 2600.000000"
 preserveAspectRatio="xMidYMid meet">
<metadata>
Created by potrace 1.14, written by Peter Selinger 2001-2017
</metadata>
<g transform="translate(0.000000,2600.000000) scale(0.100000,-0.100000)"
fill="#000000" stroke="none">
<path d="M14457 25954 c-1 -1 -92 -5 -202 -8 -110 -4 -213 -9 -230 -11 -16 -2
-75 -6 -130 -10 -55 -3 -116 -8 -135 -10 -19 -2 -69 -6 -110 -10 -92 -7 -121
-10 -185 -19 -27 -3 -70 -9 -95 -11 -54 -6 -195 -25 -230 -30 -14 -2 -47 -7
-75 -10 -27 -4 -57 -8 -65 -10 -8 -2 -37 -7 -65 -10 -27 -3 -72 -10 -100 -15
-27 -5 -68 -12 -90 -15 -49 -7 -85 -13 -210 -36 -33 -6 -75 -13 -93 -15 -18
-1 -36 -5 -40 -8 -4 -2 -28 -7 -52 -11 -186 -26 -1030 -205 -1323 -280 -444
-113 -818 -234 -1202 -390 -167 -68 -216 -89 -380 -163 -372 -168 -802 -421
-1125 -661 -171 -128 -482 -380 -580 -471 -15 -14 -76 -70 -136 -125 -139
-127 -508 -496 -644 -645 -58 -63 -186 -196 -285 -295 -99 -99 -214 -216 -255
-260 -158 -168 -234 -254 -474 -535 -85 -100 -233 -283 -353 -435 -531 -677
-764 -1038 -901 -1395 -38 -98 -87 -243 -97 -286 -2 -11 -18 -68 -35 -129 -16
-60 -32 -119 -34 -130 -3 -11 -16 -63 -30 -115 -30 -113 -62 -264 -71 -340 -3
-30 -8 -62 -10 -70 -8 -31 -23 -199 -31 -345 -11 -201 -6 -589 11 -820 18
-245 18 -247 -9 -390 -34 -177 -55 -282 -66 -320 -5 -16 -11 -41 -14 -55 -14
-86 -114 -412 -164 -535 -109 -272 -290 -557 -579 -912 -186 -230 -419 -720
-469 -987 -43 -233 -39 -365 18 -541 62 -189 270 -549 515 -890 23 -33 51 -71
60 -85 42 -58 354 -471 363 -480 3 -3 44 -52 90 -110 117 -146 125 -155 305
-335 160 -161 222 -218 345 -315 36 -28 73 -58 83 -66 95 -78 405 -277 592
-379 38 -21 122 -73 185 -114 89 -59 209 -128 237 -137 2 0 -7 -45 -18 -99
-40 -189 -102 -362 -191 -539 -63 -125 -97 -175 -263 -396 -189 -252 -223
-304 -296 -452 -94 -190 -129 -404 -98 -600 5 -29 11 -66 13 -83 32 -201 174
-689 305 -1050 78 -214 146 -396 178 -480 19 -49 51 -130 70 -180 19 -49 43
-110 53 -135 10 -25 30 -88 45 -140 109 -390 266 -832 454 -1278 28 -68 56
-131 60 -140 5 -9 24 -51 42 -92 18 -41 65 -144 106 -228 40 -83 72 -154 70
-156 -1 -1 3 -9 9 -17 7 -8 43 -75 82 -149 95 -185 132 -252 225 -415 44 -77
85 -149 91 -160 6 -11 19 -31 27 -45 9 -14 54 -86 99 -160 46 -74 140 -223
210 -330 111 -171 371 -585 426 -678 521 -881 624 -994 1614 -1776 276 -217
676 -499 854 -602 37 -21 82 -47 99 -57 82 -49 243 -128 337 -166 58 -23 114
-46 125 -51 60 -27 301 -88 411 -104 22 -4 49 -8 59 -10 32 -6 96 -15 145 -20
40 -5 79 -8 210 -21 19 -2 69 -6 110 -10 41 -3 120 -10 175 -15 104 -10 161
-15 305 -25 47 -3 108 -8 135 -10 28 -2 109 -6 180 -10 72 -3 168 -8 215 -10
489 -25 1463 -25 1865 -1 39 3 120 8 180 11 61 4 128 8 150 10 22 2 74 7 115
10 41 3 89 8 105 9 17 2 66 7 110 11 44 4 87 8 95 10 8 1 42 6 75 9 33 4 71 9
85 11 71 10 109 15 150 20 25 4 106 17 180 30 187 34 187 34 265 51 39 9 81
18 95 21 76 14 348 92 625 178 811 252 1093 408 1380 764 30 38 55 73 55 79 0
6 4 12 9 14 15 6 140 206 238 381 95 170 170 321 218 439 15 35 32 77 40 93
107 237 442 1200 665 1915 28 91 58 183 65 205 7 22 30 94 50 160 20 66 55
178 77 250 22 71 42 136 44 145 2 8 22 76 45 150 63 209 140 463 144 480 2 8
46 159 99 335 118 400 214 730 371 1285 69 239 129 449 134 465 5 17 21 77 36
135 14 58 31 121 36 140 10 37 143 597 159 665 4 22 27 117 50 210 22 94 52
217 66 275 46 190 92 383 129 535 20 83 38 157 40 165 2 8 9 38 15 65 6 28 13
57 15 65 2 8 18 74 35 145 17 72 49 204 71 295 21 91 44 181 49 201 6 20 10
45 10 55 0 11 28 66 61 124 58 98 209 391 209 404 0 4 9 25 20 49 76 166 174
480 215 690 3 15 7 39 10 55 3 15 10 50 16 78 5 28 12 64 14 80 3 16 7 43 10
59 2 17 7 48 10 70 3 22 10 65 15 95 5 30 12 75 15 100 3 25 8 61 11 80 7 52
13 98 19 160 4 30 8 66 10 80 2 14 7 48 10 75 3 28 8 71 11 98 3 26 7 64 9 85
2 20 6 62 9 92 13 127 25 257 26 291 0 17 30 64 91 140 391 489 630 1036 666
1528 12 159 5 482 -12 581 -2 14 -7 48 -10 75 -5 42 -19 138 -41 270 -9 58
-25 141 -45 230 -24 113 -26 120 -40 175 -6 25 -12 52 -14 60 -41 198 -101
363 -295 820 -11 25 -38 90 -60 145 -76 182 -112 270 -125 300 -7 17 -29 71
-50 120 -20 50 -43 104 -50 120 -7 17 -32 75 -55 130 -22 55 -51 125 -64 155
-13 30 -45 107 -71 170 -26 63 -54 131 -63 150 -8 19 -25 60 -37 90 -51 127
-250 600 -266 632 -9 19 -56 175 -198 667 l-27 95 17 91 c18 96 26 150 35 255
3 36 8 72 10 80 8 24 18 227 18 370 0 228 -18 399 -59 568 -3 12 -7 30 -9 40
-33 141 -144 394 -266 601 -45 76 -214 318 -278 396 -4 6 -37 48 -72 95 -35
47 -66 87 -69 90 -4 3 -26 32 -51 65 -50 68 -307 392 -354 446 -17 19 -53 62
-81 94 -265 314 -481 531 -773 777 -33 27 -214 169 -243 191 -50 36 -326 237
-366 266 -23 17 -165 112 -315 212 -150 99 -283 188 -295 197 -12 10 -79 62
-150 118 -174 137 -292 217 -483 328 -251 146 -661 300 -910 342 -14 3 -47 9
-75 14 -79 16 -207 38 -257 45 -94 12 -193 24 -253 30 -27 3 -63 7 -80 10 -29
3 -114 10 -240 20 -197 14 -866 28 -878 19z m3092 -5179 c41 -4 77 -8 80 -10
4 -2 22 -6 41 -9 19 -3 74 -16 121 -30 268 -78 559 -236 907 -495 l143 -106
93 -170 c116 -212 266 -486 319 -585 22 -41 79 -147 127 -235 48 -88 107 -196
130 -240 23 -44 50 -93 60 -110 14 -23 19 -63 24 -170 4 -77 9 -167 11 -200 2
-33 6 -118 10 -190 6 -126 8 -169 20 -400 3 -60 7 -155 10 -210 3 -55 7 -140
10 -190 3 -49 7 -144 10 -210 3 -66 8 -160 10 -210 3 -49 7 -135 10 -190 2
-55 7 -145 10 -200 7 -138 14 -272 20 -390 6 -129 15 -311 20 -400 2 -38 7
-135 10 -215 4 -80 8 -170 10 -200 2 -30 7 -113 10 -185 3 -71 8 -163 10 -202
3 -40 0 -96 -6 -125 -6 -29 -12 -64 -15 -78 -3 -14 -7 -32 -9 -40 -2 -8 -6
-28 -9 -45 -3 -16 -14 -84 -25 -150 -29 -173 -52 -344 -66 -492 -13 -129 -14
-153 -22 -293 -11 -216 -5 -613 11 -695 2 -11 7 -51 10 -90 4 -38 9 -81 11
-95 2 -14 9 -56 15 -95 6 -38 27 -140 46 -225 31 -135 106 -487 119 -560 6
-31 11 -53 24 -110 5 -25 12 -56 15 -70 2 -14 14 -70 26 -125 12 -55 23 -111
26 -125 15 -79 107 -436 128 -499 28 -81 30 -73 -35 -152 -20 -24 -92 -111
-159 -194 -67 -82 -129 -159 -138 -170 -9 -11 -37 -45 -62 -75 -52 -62 -97
-105 -220 -210 -43 -37 -66 -56 -120 -103 -229 -198 -513 -377 -598 -377 -104
0 -357 231 -695 636 -37 44 -84 90 -104 101 -21 11 -78 45 -128 75 -167 101
-395 222 -545 288 -52 23 -109 48 -126 56 -123 55 -424 148 -539 167 -16 3
-61 10 -100 17 -103 17 -335 20 -450 5 -148 -20 -259 -50 -525 -145 -63 -22
-124 -42 -135 -44 -11 -3 -46 -11 -78 -20 -32 -8 -77 -19 -100 -23 -56 -10
-406 -10 -532 0 -55 4 -122 10 -150 12 -61 5 -153 13 -220 20 -27 3 -75 8
-105 11 -83 8 -117 12 -210 23 -47 6 -107 13 -135 16 -27 3 -66 7 -85 10 -19
3 -57 7 -85 10 -86 10 -126 15 -154 20 -28 4 -300 42 -366 50 -22 2 -51 7 -65
9 -25 5 -55 10 -145 22 -27 3 -59 8 -70 10 -38 7 -241 31 -330 39 -282 24
-779 24 -955 0 -19 -2 -59 -7 -89 -10 -30 -3 -66 -7 -80 -10 -14 -2 -46 -6
-71 -9 -36 -4 -181 -30 -285 -52 -11 -2 -29 -6 -40 -8 -115 -23 -349 -97 -471
-149 -336 -145 -517 -315 -628 -592 -15 -38 -32 -79 -37 -90 -4 -11 -58 -146
-120 -300 -61 -154 -117 -293 -124 -310 -7 -16 -70 -174 -140 -350 -137 -345
-235 -559 -307 -670 -46 -70 -103 -135 -119 -135 -15 0 -133 47 -189 75 -43
22 -186 106 -339 200 -56 35 -322 217 -461 316 -91 65 -173 124 -183 131 -120
84 -232 177 -238 198 -4 14 -23 75 -42 135 -67 211 -101 320 -102 325 -1 7
-61 198 -100 320 -19 58 -40 128 -48 155 -8 28 -34 109 -57 180 -23 72 -43
137 -45 145 -2 8 -10 35 -18 60 -8 25 -36 113 -62 195 -25 83 -59 191 -75 240
-16 50 -52 163 -80 251 l-50 162 3 1973 c1 1086 5 1983 9 1994 3 11 9 51 13
90 4 38 8 72 10 75 1 3 6 36 10 73 3 37 8 76 10 85 1 9 6 40 9 67 6 44 55 383
71 490 3 22 8 51 10 65 3 14 7 41 10 60 7 40 62 360 70 405 3 17 10 53 16 81
5 28 12 64 15 80 3 16 17 83 31 149 14 66 26 127 28 136 18 88 107 446 141
564 154 539 314 881 499 1068 273 276 635 502 900 562 17 4 39 9 50 13 11 3
220 7 465 9 l445 4 150 -31 c83 -17 164 -33 180 -36 17 -3 46 -9 65 -14 19 -5
82 -18 140 -30 58 -12 114 -24 125 -26 11 -3 52 -11 90 -19 101 -20 390 -80
530 -110 66 -14 149 -28 185 -30 36 -3 90 -7 120 -10 260 -23 972 -23 1245 0
22 2 85 6 140 10 55 3 111 8 125 10 14 2 63 7 110 10 47 3 96 8 110 10 22 3
69 8 200 20 38 3 76 8 245 30 61 8 130 17 155 20 25 3 57 8 71 10 14 3 43 7
65 10 21 2 50 7 64 9 14 3 43 8 65 11 46 7 41 6 249 40 87 15 168 29 180 31
12 2 37 7 56 10 19 3 67 12 107 20 39 7 89 17 110 20 114 17 401 80 503 109
377 109 641 260 856 490 82 87 116 115 199 164 94 55 184 104 195 106 3 1 34
15 70 32 36 17 101 45 145 63 44 17 89 36 100 41 54 23 399 134 448 143 7 1
28 6 47 11 44 10 179 23 205 19 11 -2 54 -6 94 -9z m-914 -11638 c88 -7 133
-10 345 -22 58 -3 123 -8 145 -10 22 -2 85 -6 140 -10 55 -3 114 -8 130 -10
17 -2 66 -7 110 -11 44 -3 87 -8 95 -9 8 -2 43 -6 78 -10 58 -7 62 -9 56 -29
-23 -73 -230 -431 -377 -651 -283 -425 -585 -700 -934 -849 -151 -64 -601
-209 -750 -241 -10 -2 -85 -20 -168 -39 -426 -102 -468 -108 -800 -122 -456
-19 -964 -3 -1300 40 -16 3 -52 7 -80 11 -52 7 -149 21 -200 30 -16 3 -41 7
-55 10 -92 16 -297 63 -418 96 -429 117 -798 285 -1102 500 -70 50 -194 166
-480 451 -212 211 -404 408 -427 438 -59 78 -94 150 -82 171 8 15 65 42 79 37
3 -1 15 4 27 10 24 13 99 31 263 62 106 21 126 24 190 34 19 3 44 7 55 10 11
2 43 7 70 10 28 4 61 9 75 11 49 7 97 14 215 30 66 9 138 18 160 21 22 3 54 8
70 10 17 2 46 6 65 8 19 3 64 8 100 12 36 4 90 10 120 14 69 10 4462 6 4585
-3z"/>
<path d="M12530 17493 c-27 -3 -155 -23 -180 -28 -8 -2 -49 -11 -90 -20 -41
-9 -88 -19 -105 -22 -124 -20 -288 -62 -429 -108 -188 -62 -242 -70 -481 -70
-225 0 -308 12 -585 85 -125 33 -137 35 -255 55 -138 24 -422 10 -610 -29 -95
-20 -307 -89 -389 -126 -23 -11 -173 -73 -334 -139 -417 -172 -435 -182 -582
-330 -234 -235 -354 -516 -354 -831 0 -61 10 -176 18 -210 2 -8 7 -34 11 -57
4 -24 10 -43 14 -43 8 0 80 104 235 335 66 99 126 186 134 194 7 8 21 26 30
40 62 98 238 287 317 339 42 28 174 88 214 97 9 3 59 16 111 30 52 14 106 27
120 30 14 3 36 7 50 10 69 14 308 48 330 48 14 -1 93 -15 175 -33 83 -17 161
-33 175 -36 14 -3 33 -7 42 -10 10 -3 30 -7 45 -10 16 -3 102 -21 193 -40 91
-20 176 -38 190 -40 14 -2 37 -7 52 -10 15 -3 30 -5 33 -5 2 0 19 -5 37 -10
18 -5 44 -11 58 -14 14 -3 36 -7 50 -10 14 -3 36 -7 50 -10 14 -3 57 -12 95
-20 61 -13 110 -23 190 -39 11 -2 38 -9 60 -14 22 -6 65 -13 95 -17 30 -3 71
-8 90 -10 19 -2 58 -7 85 -10 28 -3 66 -8 85 -10 45 -6 110 -13 185 -20 33 -3
92 -10 130 -15 39 -5 99 -12 135 -15 36 -4 76 -8 90 -10 14 -2 57 -7 95 -10
39 -3 84 -7 100 -10 17 -2 57 -7 90 -10 33 -3 78 -8 100 -10 108 -11 210 -20
325 -29 184 -14 260 -23 360 -42 338 -62 434 -59 597 21 172 85 244 216 207
377 -16 66 -146 327 -195 391 -161 207 -568 421 -879 462 -25 3 -58 8 -73 11
-32 7 -219 11 -257 7z"/>
<path d="M16350 17416 c-129 -29 -260 -90 -427 -200 -118 -76 -127 -85 -215
-200 -137 -177 -136 -175 -170 -308 -28 -107 -32 -140 -33 -253 0 -128 1 -131
29 -173 68 -100 236 -131 470 -88 11 2 39 7 61 12 45 8 644 9 688 1 73 -15
236 -22 482 -22 279 0 397 6 550 30 17 3 50 8 75 11 37 5 190 32 335 59 58 11
180 37 195 43 8 3 24 7 35 9 11 2 61 15 110 29 84 24 106 26 335 29 135 2 256
5 270 8 14 3 48 8 75 11 28 4 61 9 75 11 24 5 59 9 150 21 25 3 55 7 66 9 12
2 48 6 80 10 33 4 64 10 71 14 8 4 -41 59 -130 147 -139 137 -144 140 -222
167 -100 34 -178 54 -241 63 -27 3 -52 8 -55 10 -15 9 -207 17 -334 15 -77 -1
-174 -3 -215 -4 -41 0 -95 2 -120 7 -88 15 -336 55 -375 61 -22 4 -51 8 -65
11 -58 10 -158 26 -195 31 -53 7 -588 227 -735 302 -127 65 -233 106 -327 125
-80 17 -223 18 -293 2z"/>
<path d="M10977 15795 c-1 -2 -47 -6 -102 -9 -114 -8 -138 -10 -215 -20 -52
-7 -72 -10 -145 -22 -98 -15 -357 -68 -395 -80 -217 -71 -504 -225 -616 -331
-104 -97 -122 -195 -52 -274 13 -14 32 -31 43 -36 21 -11 197 -61 244 -69 14
-3 33 -7 41 -9 8 -3 33 -7 55 -11 22 -3 42 -7 45 -9 3 -2 26 -6 50 -10 25 -3
52 -8 60 -10 8 -2 47 -7 85 -11 39 -3 72 -8 75 -9 3 -2 46 -6 95 -10 50 -3
100 -8 111 -10 12 -2 71 -6 130 -10 60 -4 127 -9 149 -11 22 -2 96 -6 165 -9
69 -3 139 -8 155 -10 17 -2 100 -7 185 -10 85 -4 182 -8 215 -10 427 -25 1070
-25 1320 0 93 9 155 24 212 52 112 55 130 136 51 234 -27 32 -594 402 -696
453 -154 77 -394 164 -498 180 -20 4 -40 8 -43 11 -14 8 -217 40 -326 51 -63
6 -392 13 -398 9z"/>
<path d="M17469 15586 c-2 -2 -33 -6 -69 -10 -36 -3 -74 -8 -85 -10 -11 -2
-49 -7 -85 -11 -75 -9 -90 -11 -145 -20 -22 -3 -69 -11 -104 -16 -222 -34
-399 -98 -651 -237 -163 -89 -325 -218 -387 -308 -91 -131 -76 -281 33 -337
75 -38 100 -40 869 -44 413 -2 883 -4 1045 -6 261 -2 442 4 520 17 14 3 60 7
103 10 233 18 337 50 392 121 64 85 21 195 -164 420 -95 115 -140 157 -223
212 -146 95 -365 164 -658 207 -81 12 -381 21 -391 12z"/>
</g>
</svg>
